<svg width="20" height="21" viewBox="0 0 20 21" fill="none" xmlns="http://www.w3.org/2000/svg">
<path d="M10.8829 10.5L16.0704 5.32032C16.1701 5.19888 16.221 5.04472 16.2133 4.88781C16.2056 4.7309 16.1398 4.58247 16.0287 4.47139C15.9176 4.3603 15.7692 4.29451 15.6123 4.2868C15.4554 4.2791 15.3012 4.33003 15.1798 4.42969L10.0001 9.61719L4.82041 4.42969C4.69898 4.33003 4.54481 4.2791 4.3879 4.2868C4.231 4.29451 4.08256 4.3603 3.97148 4.47139C3.8604 4.58247 3.7946 4.7309 3.78689 4.88781C3.77919 5.04472 3.83012 5.19888 3.92979 5.32032L9.11728 10.5L3.92979 15.6797C3.81242 15.7982 3.74658 15.9582 3.74658 16.125C3.74658 16.2918 3.81242 16.4518 3.92979 16.5703C4.04925 16.6858 4.20892 16.7504 4.3751 16.7504C4.54127 16.7504 4.70095 16.6858 4.82041 16.5703L10.0001 11.3828L15.1798 16.5703C15.2992 16.6858 15.4589 16.7504 15.6251 16.7504C15.7913 16.7504 15.9509 16.6858 16.0704 16.5703C16.1878 16.4518 16.2536 16.2918 16.2536 16.125C16.2536 15.9582 16.1878 15.7982 16.0704 15.6797L10.8829 10.5Z" fill="#1C1C1C" fill-opacity="0.6"/>
</svg>
