<svg width="22" height="23" viewBox="0 0 22 23" fill="none" xmlns="http://www.w3.org/2000/svg">
<path d="M20.3526 9.52343C19.751 9.07741 19.012 8.74999 18.2316 8.57339C18.1035 8.54457 17.9862 8.47989 17.8935 8.38692C17.8007 8.29394 17.7364 8.1765 17.7079 8.04831C17.3727 6.55515 16.6512 5.27468 15.5908 4.30444C14.358 3.17479 12.7278 2.55347 11 2.55347C9.48105 2.55347 8.07812 3.02956 6.94504 3.93062C6.17711 4.54226 5.55898 5.32117 5.13777 6.20796C5.09211 6.30499 5.02437 6.38999 4.93999 6.45617C4.85561 6.52235 4.75691 6.56787 4.6518 6.58909C3.50238 6.82112 2.46469 7.31397 1.67234 8.01222C0.578359 8.97901 0 10.2642 0 11.7316C0 13.2149 0.622617 14.5675 1.7527 15.5455C2.83207 16.4775 4.28527 16.991 5.84375 16.991H10.3125V10.4008L8.73598 11.9774C8.67016 12.0432 8.59166 12.0949 8.50525 12.1295C8.41883 12.1641 8.32629 12.1808 8.23324 12.1785C8.14019 12.1763 8.04857 12.1551 7.96393 12.1164C7.87928 12.0777 7.80338 12.0222 7.74082 11.9533C7.4916 11.6796 7.51566 11.2529 7.77734 10.9912L10.514 8.25499C10.6429 8.12616 10.8177 8.05379 11 8.05379C11.1823 8.05379 11.3571 8.12616 11.486 8.25499L14.2227 10.9904C14.4925 11.2607 14.508 11.7037 14.2394 11.9748C14.1757 12.0391 14.0999 12.0903 14.0164 12.1252C13.9329 12.1602 13.8432 12.1783 13.7527 12.1786C13.6621 12.1788 13.5724 12.1612 13.4887 12.1266C13.405 12.0921 13.3289 12.0414 13.2649 11.9774L11.6875 10.4008V16.991H17.0156C18.3623 16.991 19.5899 16.6128 20.4725 15.9266C21.4719 15.1489 22 14.036 22 12.7113C22 11.4248 21.4302 10.3218 20.3526 9.52343Z" fill="white"/>
<path d="M10.3125 19.759C10.3125 19.9413 10.3849 20.1162 10.5139 20.2451C10.6428 20.3741 10.8177 20.4465 11 20.4465C11.1823 20.4465 11.3572 20.3741 11.4861 20.2451C11.6151 20.1162 11.6875 19.9413 11.6875 19.759V16.991H10.3125V19.759Z" fill="white"/>
</svg>
