<svg width="23" height="22" viewBox="0 0 23 22" fill="none" xmlns="http://www.w3.org/2000/svg">
<path d="M20.4546 4.44297V8.56797C20.4546 8.75031 20.3821 8.92518 20.2532 9.05411C20.1243 9.18304 19.9494 9.25547 19.7671 9.25547H15.6421C15.5068 9.25525 15.3746 9.21512 15.262 9.14009C15.1494 9.06507 15.0614 8.9585 15.0091 8.83372C14.9568 8.70894 14.9425 8.57151 14.968 8.43863C14.9934 8.30575 15.0575 8.18334 15.1522 8.08672L16.7335 6.50547L16.3639 6.13594C15.4022 5.17522 14.1771 4.5212 12.8437 4.25655C11.5103 3.99189 10.1284 4.12849 8.87257 4.64906C7.61678 5.16964 6.5435 6.05083 5.7884 7.18125C5.03331 8.31168 4.63029 9.64058 4.63029 11C4.63029 12.3594 5.03331 13.6883 5.7884 14.8188C6.5435 15.9492 7.61678 16.8304 8.87257 17.3509C10.1284 17.8715 11.5103 18.0081 12.8437 17.7435C14.1771 17.4788 15.4022 16.8248 16.3639 15.8641C16.4272 15.7994 16.5027 15.748 16.5861 15.7129C16.6695 15.6777 16.759 15.6597 16.8495 15.6597C16.94 15.6597 17.0295 15.6777 17.1129 15.7129C17.1963 15.748 17.2718 15.7994 17.335 15.8641C17.4636 15.9929 17.5358 16.1676 17.5358 16.3496C17.5358 16.5317 17.4636 16.7063 17.335 16.8352C16.1811 17.9885 14.7111 18.7738 13.1108 19.0918C11.5106 19.4098 9.85203 19.2461 8.3448 18.6216C6.83756 17.997 5.54934 16.9396 4.64301 15.583C3.73667 14.2264 3.25293 12.6315 3.25293 11C3.25293 9.36849 3.73667 7.77361 4.64301 6.417C5.54934 5.06039 6.83756 4.00296 8.3448 3.37841C9.85203 2.75386 11.5106 2.59023 13.1108 2.90821C14.7111 3.22619 16.1811 4.0115 17.335 5.16485L17.7046 5.53438L19.2772 3.96172C19.3726 3.86494 19.4945 3.79859 19.6276 3.77105C19.7607 3.74352 19.8989 3.75604 20.0249 3.80703C20.1503 3.86017 20.2576 3.94851 20.3339 4.06137C20.4102 4.17424 20.4521 4.30678 20.4546 4.44297Z" fill="white"/>
</svg>
